<svg width="10" height="10" viewBox="0 0 10 10" fill="none" xmlns="http://www.w3.org/2000/svg">
<path d="M9.32456 9.32443C9.07566 9.57333 8.81544 9.69779 8.54391 9.69779C8.26107 9.68647 7.9952 9.55636 7.7463 9.30746L4.96312 6.52429L2.23086 9.25655C1.99327 9.49414 1.74437 9.61859 1.48416 9.6299C1.21263 9.6299 0.95807 9.51111 0.720482 9.27352C0.482894 9.03593 0.369757 8.78703 0.381071 8.52682C0.381071 8.25529 0.499865 8.00073 0.737453 7.76314L3.46971 5.03088L0.771394 2.33256C0.522492 2.08366 0.398041 1.82344 0.398041 1.55192C0.398041 1.28039 0.52815 1.01451 0.788365 0.754299C1.03727 0.505397 1.29182 0.386603 1.55204 0.397916C1.82357 0.397917 2.08378 0.522367 2.33269 0.771269L5.03101 3.46959L7.76327 0.737328C8.01217 0.488426 8.26673 0.369632 8.52694 0.380947C8.78716 0.369632 9.03606 0.482769 9.27365 0.720358C9.51123 0.957945 9.63003 1.2125 9.63003 1.48403C9.63003 1.73293 9.50558 1.98184 9.25668 2.23074L6.52441 4.963L9.30759 7.74617C9.55649 7.99507 9.6866 8.26094 9.69791 8.54379C9.70922 8.804 9.58477 9.06422 9.32456 9.32443Z" fill="white"/>
</svg>
