<svg width="795" height="204" viewBox="0 0 795 204" fill="none" xmlns="http://www.w3.org/2000/svg">
<path d="M18.0059 194.827H19.3975L21.458 200.892L23.5039 194.827H24.8809V202H23.958V197.767C23.958 197.62 23.9613 197.378 23.9678 197.039C23.9743 196.701 23.9775 196.338 23.9775 195.95L21.9316 202H20.9697L18.9092 195.95V196.17C18.9092 196.346 18.9124 196.614 18.9189 196.976C18.9287 197.334 18.9336 197.597 18.9336 197.767V202H18.0059V194.827ZM28.3184 201.434C28.901 201.434 29.2998 201.214 29.5146 200.774C29.7327 200.332 29.8418 199.84 29.8418 199.3C29.8418 198.812 29.7637 198.414 29.6074 198.108C29.36 197.627 28.9336 197.386 28.3281 197.386C27.791 197.386 27.4004 197.591 27.1562 198.001C26.9121 198.411 26.79 198.906 26.79 199.485C26.79 200.042 26.9121 200.506 27.1562 200.877C27.4004 201.248 27.7878 201.434 28.3184 201.434ZM28.3525 196.619C29.0264 196.619 29.596 196.844 30.0615 197.293C30.527 197.742 30.7598 198.403 30.7598 199.275C30.7598 200.118 30.5547 200.815 30.1445 201.365C29.7344 201.915 29.098 202.19 28.2354 202.19C27.516 202.19 26.9447 201.948 26.5215 201.463C26.0983 200.975 25.8867 200.32 25.8867 199.5C25.8867 198.621 26.1097 197.921 26.5557 197.4C27.0016 196.88 27.6006 196.619 28.3525 196.619ZM31.8096 196.771H32.6445V197.513C32.8919 197.207 33.154 196.987 33.4307 196.854C33.7074 196.72 34.015 196.653 34.3535 196.653C35.0957 196.653 35.597 196.912 35.8574 197.43C36.0007 197.713 36.0723 198.118 36.0723 198.646V202H35.1787V198.704C35.1787 198.385 35.1315 198.128 35.0371 197.933C34.8809 197.607 34.5977 197.444 34.1875 197.444C33.9792 197.444 33.8083 197.465 33.6748 197.508C33.4339 197.579 33.2223 197.723 33.04 197.938C32.8936 198.11 32.7975 198.289 32.752 198.475C32.7096 198.657 32.6885 198.919 32.6885 199.261V202H31.8096V196.771Z" fill="#C6C6C6"/>
<path d="M151.877 194.827V195.682H149.46V202H148.474V195.682H146.057V194.827H151.877ZM153.161 196.771V200.242C153.161 200.509 153.204 200.727 153.288 200.896C153.445 201.209 153.736 201.365 154.162 201.365C154.774 201.365 155.191 201.092 155.412 200.545C155.533 200.252 155.593 199.85 155.593 199.339V196.771H156.472V202H155.642L155.652 201.229C155.538 201.427 155.396 201.595 155.227 201.731C154.892 202.005 154.485 202.142 154.006 202.142C153.261 202.142 152.753 201.893 152.483 201.395C152.336 201.128 152.263 200.771 152.263 200.325V196.771H153.161ZM160.027 196.653C160.398 196.653 160.757 196.741 161.106 196.917C161.454 197.09 161.719 197.314 161.902 197.591C162.077 197.854 162.195 198.162 162.253 198.514C162.305 198.755 162.331 199.139 162.331 199.666H158.498C158.515 200.197 158.64 200.623 158.874 200.945C159.109 201.264 159.472 201.424 159.963 201.424C160.422 201.424 160.788 201.272 161.062 200.97C161.218 200.794 161.329 200.59 161.394 200.359H162.258C162.235 200.551 162.159 200.766 162.029 201.004C161.902 201.238 161.758 201.43 161.599 201.58C161.332 201.84 161.002 202.016 160.608 202.107C160.396 202.16 160.157 202.186 159.89 202.186C159.239 202.186 158.687 201.95 158.235 201.478C157.782 201.002 157.556 200.338 157.556 199.485C157.556 198.646 157.784 197.964 158.24 197.439C158.695 196.915 159.291 196.653 160.027 196.653ZM161.428 198.968C161.392 198.587 161.309 198.283 161.179 198.055C160.938 197.632 160.536 197.42 159.973 197.42C159.569 197.42 159.231 197.566 158.957 197.859C158.684 198.149 158.539 198.519 158.523 198.968H161.428Z" fill="#C6C6C6"/>
<path d="M272.702 194.827L274.054 200.662L275.676 194.827H276.73L278.351 200.662L279.704 194.827H280.768L278.884 202H277.863L276.208 196.053L274.543 202H273.522L271.647 194.827H272.702ZM283.556 196.653C283.927 196.653 284.287 196.741 284.635 196.917C284.984 197.09 285.249 197.314 285.431 197.591C285.607 197.854 285.724 198.162 285.783 198.514C285.835 198.755 285.861 199.139 285.861 199.666H282.028C282.044 200.197 282.17 200.623 282.404 200.945C282.638 201.264 283.001 201.424 283.493 201.424C283.952 201.424 284.318 201.272 284.592 200.97C284.748 200.794 284.858 200.59 284.924 200.359H285.788C285.765 200.551 285.689 200.766 285.558 201.004C285.431 201.238 285.288 201.43 285.129 201.58C284.862 201.84 284.531 202.016 284.137 202.107C283.926 202.16 283.687 202.186 283.42 202.186C282.769 202.186 282.217 201.95 281.764 201.478C281.312 201.002 281.086 200.338 281.086 199.485C281.086 198.646 281.314 197.964 281.769 197.439C282.225 196.915 282.821 196.653 283.556 196.653ZM284.958 198.968C284.922 198.587 284.839 198.283 284.709 198.055C284.468 197.632 284.066 197.42 283.503 197.42C283.099 197.42 282.76 197.566 282.487 197.859C282.214 198.149 282.069 198.519 282.052 198.968H284.958ZM287.502 199.446C287.502 200.006 287.621 200.475 287.858 200.853C288.096 201.23 288.477 201.419 289.001 201.419C289.408 201.419 289.741 201.245 290.002 200.896C290.265 200.545 290.397 200.042 290.397 199.388C290.397 198.727 290.262 198.239 289.992 197.923C289.722 197.604 289.388 197.444 288.991 197.444C288.548 197.444 288.189 197.614 287.912 197.952C287.638 198.291 287.502 198.789 287.502 199.446ZM288.825 196.678C289.225 196.678 289.561 196.762 289.831 196.932C289.987 197.029 290.164 197.2 290.363 197.444V194.803H291.208V202H290.417V201.272C290.212 201.595 289.969 201.827 289.689 201.971C289.409 202.114 289.089 202.186 288.727 202.186C288.145 202.186 287.64 201.941 287.214 201.453C286.787 200.962 286.574 200.309 286.574 199.495C286.574 198.733 286.768 198.074 287.155 197.518C287.546 196.958 288.102 196.678 288.825 196.678Z" fill="#C6C6C6"/>
<path d="M406.358 194.827V195.682H403.941V202H402.955V195.682H400.538V194.827H406.358ZM407.135 194.803H408.014V197.479C408.222 197.215 408.409 197.029 408.575 196.922C408.858 196.736 409.212 196.644 409.635 196.644C410.393 196.644 410.908 196.909 411.178 197.439C411.324 197.729 411.397 198.131 411.397 198.646V202H410.494V198.704C410.494 198.32 410.445 198.038 410.348 197.859C410.188 197.573 409.889 197.43 409.449 197.43C409.085 197.43 408.754 197.555 408.458 197.806C408.162 198.056 408.014 198.53 408.014 199.227V202H407.135V194.803ZM413.58 196.771V200.242C413.58 200.509 413.622 200.727 413.707 200.896C413.863 201.209 414.155 201.365 414.581 201.365C415.193 201.365 415.61 201.092 415.831 200.545C415.951 200.252 416.012 199.85 416.012 199.339V196.771H416.891V202H416.061L416.07 201.229C415.956 201.427 415.815 201.595 415.646 201.731C415.31 202.005 414.903 202.142 414.425 202.142C413.679 202.142 413.172 201.893 412.901 201.395C412.755 201.128 412.682 200.771 412.682 200.325V196.771H413.58Z" fill="#C6C6C6"/>
<path d="M531.353 194.827H536.328V195.706H532.325V197.884H535.845V198.738H532.325V202H531.353V194.827ZM537.281 196.771H538.116V197.674C538.184 197.498 538.352 197.285 538.619 197.034C538.885 196.78 539.193 196.653 539.541 196.653C539.558 196.653 539.585 196.655 539.624 196.658C539.663 196.661 539.73 196.668 539.825 196.678V197.605C539.773 197.596 539.724 197.589 539.678 197.586C539.636 197.583 539.589 197.581 539.536 197.581C539.094 197.581 538.754 197.724 538.516 198.011C538.278 198.294 538.16 198.621 538.16 198.992V202H537.281V196.771ZM540.586 196.795H541.48V202H540.586V196.795ZM540.586 194.827H541.48V195.823H540.586V194.827Z" fill="#C6C6C6"/>
<path d="M657.553 199.686C657.576 200.092 657.672 200.423 657.841 200.677C658.164 201.152 658.732 201.39 659.546 201.39C659.91 201.39 660.242 201.338 660.542 201.233C661.121 201.032 661.411 200.67 661.411 200.149C661.411 199.759 661.289 199.48 661.045 199.314C660.797 199.152 660.41 199.01 659.882 198.89L658.911 198.67C658.276 198.527 657.827 198.369 657.563 198.196C657.107 197.897 656.88 197.449 656.88 196.854C656.88 196.209 657.102 195.68 657.548 195.267C657.994 194.853 658.626 194.646 659.443 194.646C660.195 194.646 660.833 194.829 661.357 195.193C661.884 195.555 662.148 196.134 662.148 196.932H661.235C661.186 196.548 661.082 196.253 660.922 196.048C660.626 195.674 660.123 195.486 659.414 195.486C658.841 195.486 658.429 195.607 658.178 195.848C657.928 196.089 657.802 196.368 657.802 196.688C657.802 197.039 657.949 197.296 658.242 197.459C658.434 197.563 658.868 197.693 659.546 197.85L660.551 198.079C661.036 198.19 661.411 198.341 661.674 198.533C662.13 198.868 662.358 199.355 662.358 199.993C662.358 200.787 662.068 201.355 661.489 201.697C660.913 202.039 660.242 202.21 659.477 202.21C658.585 202.21 657.887 201.982 657.382 201.526C656.878 201.074 656.63 200.46 656.64 199.686H657.553ZM664.145 200.608C664.145 200.862 664.238 201.062 664.423 201.209C664.609 201.355 664.829 201.429 665.083 201.429C665.392 201.429 665.691 201.357 665.981 201.214C666.469 200.976 666.714 200.587 666.714 200.047V199.339C666.606 199.407 666.468 199.464 666.298 199.51C666.129 199.555 665.963 199.588 665.8 199.607L665.268 199.676C664.949 199.718 664.71 199.785 664.55 199.876C664.28 200.029 664.145 200.273 664.145 200.608ZM666.274 198.831C666.476 198.805 666.611 198.72 666.679 198.577C666.718 198.499 666.738 198.387 666.738 198.24C666.738 197.941 666.63 197.724 666.416 197.591C666.204 197.454 665.9 197.386 665.503 197.386C665.044 197.386 664.718 197.509 664.526 197.757C664.419 197.894 664.349 198.097 664.316 198.367H663.496C663.512 197.723 663.72 197.275 664.121 197.024C664.524 196.771 664.991 196.644 665.522 196.644C666.137 196.644 666.637 196.761 667.021 196.995C667.402 197.229 667.592 197.594 667.592 198.089V201.102C667.592 201.193 667.61 201.266 667.646 201.321C667.685 201.377 667.765 201.404 667.885 201.404C667.924 201.404 667.968 201.403 668.017 201.399C668.066 201.393 668.118 201.385 668.173 201.375V202.024C668.037 202.063 667.933 202.088 667.861 202.098C667.789 202.107 667.692 202.112 667.568 202.112C667.265 202.112 667.046 202.005 666.909 201.79C666.837 201.676 666.787 201.515 666.757 201.307C666.578 201.541 666.321 201.744 665.986 201.917C665.651 202.09 665.281 202.176 664.878 202.176C664.393 202.176 663.995 202.029 663.686 201.736C663.38 201.44 663.227 201.071 663.227 200.628C663.227 200.143 663.379 199.767 663.681 199.5C663.984 199.233 664.381 199.069 664.873 199.007L666.274 198.831ZM669.214 195.311H670.102V196.771H670.937V197.488H670.102V200.901C670.102 201.084 670.164 201.206 670.288 201.268C670.356 201.303 670.47 201.321 670.63 201.321C670.672 201.321 670.717 201.321 670.766 201.321C670.815 201.318 670.872 201.313 670.937 201.307V202C670.836 202.029 670.73 202.05 670.62 202.063C670.512 202.076 670.395 202.083 670.268 202.083C669.858 202.083 669.58 201.979 669.433 201.771C669.287 201.559 669.214 201.285 669.214 200.95V197.488H668.505V196.771H669.214V195.311Z" fill="#C6C6C6"/>
<path d="M774.597 199.686C774.619 200.092 774.715 200.423 774.885 200.677C775.207 201.152 775.775 201.39 776.589 201.39C776.953 201.39 777.285 201.338 777.585 201.233C778.164 201.032 778.454 200.67 778.454 200.149C778.454 199.759 778.332 199.48 778.088 199.314C777.84 199.152 777.453 199.01 776.926 198.89L775.954 198.67C775.319 198.527 774.87 198.369 774.606 198.196C774.151 197.897 773.923 197.449 773.923 196.854C773.923 196.209 774.146 195.68 774.592 195.267C775.038 194.853 775.669 194.646 776.486 194.646C777.238 194.646 777.876 194.829 778.4 195.193C778.928 195.555 779.191 196.134 779.191 196.932H778.278C778.229 196.548 778.125 196.253 777.966 196.048C777.67 195.674 777.167 195.486 776.457 195.486C775.884 195.486 775.472 195.607 775.222 195.848C774.971 196.089 774.846 196.368 774.846 196.688C774.846 197.039 774.992 197.296 775.285 197.459C775.477 197.563 775.912 197.693 776.589 197.85L777.595 198.079C778.08 198.19 778.454 198.341 778.718 198.533C779.174 198.868 779.401 199.355 779.401 199.993C779.401 200.787 779.112 201.355 778.532 201.697C777.956 202.039 777.285 202.21 776.521 202.21C775.629 202.21 774.93 201.982 774.426 201.526C773.921 201.074 773.674 200.46 773.684 199.686H774.597ZM781.394 196.771V200.242C781.394 200.509 781.436 200.727 781.521 200.896C781.677 201.209 781.968 201.365 782.395 201.365C783.007 201.365 783.423 201.092 783.645 200.545C783.765 200.252 783.825 199.85 783.825 199.339V196.771H784.704V202H783.874L783.884 201.229C783.77 201.427 783.628 201.595 783.459 201.731C783.124 202.005 782.717 202.142 782.238 202.142C781.493 202.142 780.985 201.893 780.715 201.395C780.568 201.128 780.495 200.771 780.495 200.325V196.771H781.394ZM786.081 196.771H786.916V197.513C787.163 197.207 787.425 196.987 787.702 196.854C787.979 196.72 788.286 196.653 788.625 196.653C789.367 196.653 789.868 196.912 790.129 197.43C790.272 197.713 790.344 198.118 790.344 198.646V202H789.45V198.704C789.45 198.385 789.403 198.128 789.309 197.933C789.152 197.607 788.869 197.444 788.459 197.444C788.251 197.444 788.08 197.465 787.946 197.508C787.705 197.579 787.494 197.723 787.312 197.938C787.165 198.11 787.069 198.289 787.023 198.475C786.981 198.657 786.96 198.919 786.96 199.261V202H786.081V196.771Z" fill="#C6C6C6"/>
<path d="M14.1387 181.008C15.0436 181.008 15.6979 181.381 16.1016 182.126C16.4141 182.702 16.5703 183.492 16.5703 184.494C16.5703 185.445 16.4287 186.231 16.1455 186.853C15.7354 187.744 15.0648 188.19 14.1338 188.19C13.2939 188.19 12.6689 187.826 12.2588 187.097C11.917 186.488 11.7461 185.671 11.7461 184.646C11.7461 183.851 11.8486 183.169 12.0537 182.6C12.4378 181.538 13.1328 181.008 14.1387 181.008ZM14.1289 187.39C14.5846 187.39 14.9476 187.188 15.2178 186.784C15.488 186.381 15.623 185.629 15.623 184.528C15.623 183.734 15.5254 183.081 15.3301 182.57C15.1348 182.056 14.7555 181.799 14.1924 181.799C13.6748 181.799 13.2956 182.043 13.0547 182.531C12.8171 183.016 12.6982 183.732 12.6982 184.68C12.6982 185.393 12.7747 185.965 12.9277 186.398C13.1621 187.059 13.5625 187.39 14.1289 187.39Z" fill="#C6C6C6"/>
<path d="M1.25781 139.049V138.375C1.89258 138.313 2.33529 138.211 2.58594 138.067C2.83659 137.921 3.02376 137.577 3.14746 137.037H3.84082V144H2.90332V139.049H1.25781ZM8.57227 137.008C9.47721 137.008 10.1315 137.381 10.5352 138.126C10.8477 138.702 11.0039 139.492 11.0039 140.494C11.0039 141.445 10.8623 142.231 10.5791 142.853C10.1689 143.744 9.49837 144.19 8.56738 144.19C7.72754 144.19 7.10254 143.826 6.69238 143.097C6.35059 142.488 6.17969 141.671 6.17969 140.646C6.17969 139.851 6.28223 139.169 6.4873 138.6C6.87142 137.538 7.56641 137.008 8.57227 137.008ZM8.5625 143.39C9.01823 143.39 9.38118 143.188 9.65137 142.784C9.92155 142.381 10.0566 141.629 10.0566 140.528C10.0566 139.734 9.95898 139.081 9.76367 138.57C9.56836 138.056 9.18913 137.799 8.62598 137.799C8.1084 137.799 7.72917 138.043 7.48828 138.531C7.25065 139.016 7.13184 139.732 7.13184 140.68C7.13184 141.393 7.20833 141.965 7.36133 142.398C7.5957 143.059 7.99609 143.39 8.5625 143.39ZM14.1387 137.008C15.0436 137.008 15.6979 137.381 16.1016 138.126C16.4141 138.702 16.5703 139.492 16.5703 140.494C16.5703 141.445 16.4287 142.231 16.1455 142.853C15.7354 143.744 15.0648 144.19 14.1338 144.19C13.2939 144.19 12.6689 143.826 12.2588 143.097C11.917 142.488 11.7461 141.671 11.7461 140.646C11.7461 139.851 11.8486 139.169 12.0537 138.6C12.4378 137.538 13.1328 137.008 14.1387 137.008ZM14.1289 143.39C14.5846 143.39 14.9476 143.188 15.2178 142.784C15.488 142.381 15.623 141.629 15.623 140.528C15.623 139.734 15.5254 139.081 15.3301 138.57C15.1348 138.056 14.7555 137.799 14.1924 137.799C13.6748 137.799 13.2956 138.043 13.0547 138.531C12.8171 139.016 12.6982 139.732 12.6982 140.68C12.6982 141.393 12.7747 141.965 12.9277 142.398C13.1621 143.059 13.5625 143.39 14.1289 143.39Z" fill="#C6C6C6"/>
<path d="M0.613281 99C0.645833 98.3978 0.769531 97.8737 0.984375 97.4277C1.20247 96.9818 1.62565 96.5765 2.25391 96.2119L3.19141 95.6699C3.61133 95.4258 3.90592 95.2174 4.0752 95.0449C4.34212 94.7747 4.47559 94.4655 4.47559 94.1172C4.47559 93.7103 4.35352 93.388 4.10938 93.1504C3.86523 92.9095 3.53971 92.7891 3.13281 92.7891C2.5306 92.7891 2.11393 93.0169 1.88281 93.4727C1.75911 93.7168 1.69076 94.0553 1.67773 94.4883H0.78418C0.793945 93.8796 0.90625 93.3831 1.12109 92.999C1.50195 92.3219 2.17415 91.9834 3.1377 91.9834C3.93848 91.9834 4.52279 92.1999 4.89062 92.6328C5.26172 93.0658 5.44727 93.5475 5.44727 94.0781C5.44727 94.638 5.25033 95.1165 4.85645 95.5137C4.62858 95.7448 4.22005 96.0247 3.63086 96.3535L2.96191 96.7246C2.6429 96.9004 2.39225 97.068 2.20996 97.2275C1.88444 97.5107 1.67936 97.8249 1.59473 98.1699H5.41309V99H0.613281ZM8.57227 92.0078C9.47721 92.0078 10.1315 92.3805 10.5352 93.126C10.8477 93.7021 11.0039 94.4915 11.0039 95.4941C11.0039 96.4447 10.8623 97.2308 10.5791 97.8525C10.1689 98.7445 9.49837 99.1904 8.56738 99.1904C7.72754 99.1904 7.10254 98.8258 6.69238 98.0967C6.35059 97.488 6.17969 96.6709 6.17969 95.6455C6.17969 94.8512 6.28223 94.1693 6.4873 93.5996C6.87142 92.5384 7.56641 92.0078 8.57227 92.0078ZM8.5625 98.3896C9.01823 98.3896 9.38118 98.1878 9.65137 97.7842C9.92155 97.3805 10.0566 96.6286 10.0566 95.5283C10.0566 94.734 9.95898 94.0814 9.76367 93.5703C9.56836 93.056 9.18913 92.7988 8.62598 92.7988C8.1084 92.7988 7.72917 93.043 7.48828 93.5312C7.25065 94.0163 7.13184 94.7324 7.13184 95.6797C7.13184 96.3926 7.20833 96.9655 7.36133 97.3984C7.5957 98.0592 7.99609 98.3896 8.5625 98.3896ZM14.1387 92.0078C15.0436 92.0078 15.6979 92.3805 16.1016 93.126C16.4141 93.7021 16.5703 94.4915 16.5703 95.4941C16.5703 96.4447 16.4287 97.2308 16.1455 97.8525C15.7354 98.7445 15.0648 99.1904 14.1338 99.1904C13.2939 99.1904 12.6689 98.8258 12.2588 98.0967C11.917 97.488 11.7461 96.6709 11.7461 95.6455C11.7461 94.8512 11.8486 94.1693 12.0537 93.5996C12.4378 92.5384 13.1328 92.0078 14.1387 92.0078ZM14.1289 98.3896C14.5846 98.3896 14.9476 98.1878 15.2178 97.7842C15.488 97.3805 15.623 96.6286 15.623 95.5283C15.623 94.734 15.5254 94.0814 15.3301 93.5703C15.1348 93.056 14.7555 92.7988 14.1924 92.7988C13.6748 92.7988 13.2956 93.043 13.0547 93.5312C12.8171 94.0163 12.6982 94.7324 12.6982 95.6797C12.6982 96.3926 12.7747 96.9655 12.9277 97.3984C13.1621 98.0592 13.5625 98.3896 14.1289 98.3896Z" fill="#C6C6C6"/>
<path d="M2.89844 54.1904C2.07161 54.1904 1.47103 53.9642 1.09668 53.5117C0.725586 53.056 0.540039 52.5026 0.540039 51.8516H1.45801C1.49707 52.304 1.58171 52.6328 1.71191 52.8379C1.93978 53.2057 2.35156 53.3896 2.94727 53.3896C3.40951 53.3896 3.7806 53.266 4.06055 53.0186C4.34049 52.7712 4.48047 52.4521 4.48047 52.0615C4.48047 51.5798 4.33236 51.2428 4.03613 51.0508C3.74316 50.8587 3.33464 50.7627 2.81055 50.7627C2.75195 50.7627 2.69173 50.7643 2.62988 50.7676C2.57129 50.7676 2.51107 50.7692 2.44922 50.7725V49.9961C2.54036 50.0059 2.61686 50.0124 2.67871 50.0156C2.74056 50.0189 2.80729 50.0205 2.87891 50.0205C3.20768 50.0205 3.47786 49.9684 3.68945 49.8643C4.06055 49.682 4.24609 49.3564 4.24609 48.8877C4.24609 48.5394 4.1224 48.2708 3.875 48.082C3.6276 47.8932 3.33952 47.7988 3.01074 47.7988C2.4248 47.7988 2.01953 47.9941 1.79492 48.3848C1.67122 48.5996 1.60124 48.9056 1.58496 49.3027H0.71582C0.71582 48.7819 0.819987 48.3392 1.02832 47.9746C1.38639 47.3236 2.01628 46.998 2.91797 46.998C3.63086 46.998 4.18262 47.1576 4.57324 47.4766C4.96387 47.7923 5.15918 48.2513 5.15918 48.8535C5.15918 49.2832 5.04362 49.6315 4.8125 49.8984C4.66927 50.0645 4.48372 50.1947 4.25586 50.2891C4.6237 50.39 4.91016 50.5853 5.11523 50.875C5.32357 51.1615 5.42773 51.513 5.42773 51.9297C5.42773 52.597 5.20801 53.1406 4.76855 53.5605C4.3291 53.9805 3.70573 54.1904 2.89844 54.1904ZM8.57227 47.0078C9.47721 47.0078 10.1315 47.3805 10.5352 48.126C10.8477 48.7021 11.0039 49.4915 11.0039 50.4941C11.0039 51.4447 10.8623 52.2308 10.5791 52.8525C10.1689 53.7445 9.49837 54.1904 8.56738 54.1904C7.72754 54.1904 7.10254 53.8258 6.69238 53.0967C6.35059 52.488 6.17969 51.6709 6.17969 50.6455C6.17969 49.8512 6.28223 49.1693 6.4873 48.5996C6.87142 47.5384 7.56641 47.0078 8.57227 47.0078ZM8.5625 53.3896C9.01823 53.3896 9.38118 53.1878 9.65137 52.7842C9.92155 52.3805 10.0566 51.6286 10.0566 50.5283C10.0566 49.734 9.95898 49.0814 9.76367 48.5703C9.56836 48.056 9.18913 47.7988 8.62598 47.7988C8.1084 47.7988 7.72917 48.043 7.48828 48.5312C7.25065 49.0163 7.13184 49.7324 7.13184 50.6797C7.13184 51.3926 7.20833 51.9655 7.36133 52.3984C7.5957 53.0592 7.99609 53.3896 8.5625 53.3896ZM14.1387 47.0078C15.0436 47.0078 15.6979 47.3805 16.1016 48.126C16.4141 48.7021 16.5703 49.4915 16.5703 50.4941C16.5703 51.4447 16.4287 52.2308 16.1455 52.8525C15.7354 53.7445 15.0648 54.1904 14.1338 54.1904C13.2939 54.1904 12.6689 53.8258 12.2588 53.0967C11.917 52.488 11.7461 51.6709 11.7461 50.6455C11.7461 49.8512 11.8486 49.1693 12.0537 48.5996C12.4378 47.5384 13.1328 47.0078 14.1387 47.0078ZM14.1289 53.3896C14.5846 53.3896 14.9476 53.1878 15.2178 52.7842C15.488 52.3805 15.623 51.6286 15.623 50.5283C15.623 49.734 15.5254 49.0814 15.3301 48.5703C15.1348 48.056 14.7555 47.7988 14.1924 47.7988C13.6748 47.7988 13.2956 48.043 13.0547 48.5312C12.8171 49.0163 12.6982 49.7324 12.6982 50.6797C12.6982 51.3926 12.7747 51.9655 12.9277 52.3984C13.1621 53.0592 13.5625 53.3896 14.1289 53.3896Z" fill="#C6C6C6"/>
<path d="M3.60645 6.52441V3.35547L1.36523 6.52441H3.60645ZM3.62109 9V7.29102H0.554688V6.43164L3.75781 1.98828H4.5V6.52441H5.53027V7.29102H4.5V9H3.62109ZM8.57227 2.00781C9.47721 2.00781 10.1315 2.38053 10.5352 3.12598C10.8477 3.70215 11.0039 4.49154 11.0039 5.49414C11.0039 6.44466 10.8623 7.23079 10.5791 7.85254C10.1689 8.74447 9.49837 9.19043 8.56738 9.19043C7.72754 9.19043 7.10254 8.82585 6.69238 8.09668C6.35059 7.48796 6.17969 6.6709 6.17969 5.64551C6.17969 4.85124 6.28223 4.16927 6.4873 3.59961C6.87142 2.53841 7.56641 2.00781 8.57227 2.00781ZM8.5625 8.38965C9.01823 8.38965 9.38118 8.18783 9.65137 7.78418C9.92155 7.38053 10.0566 6.62858 10.0566 5.52832C10.0566 4.73405 9.95898 4.08138 9.76367 3.57031C9.56836 3.05599 9.18913 2.79883 8.62598 2.79883C8.1084 2.79883 7.72917 3.04297 7.48828 3.53125C7.25065 4.01628 7.13184 4.73242 7.13184 5.67969C7.13184 6.39258 7.20833 6.96549 7.36133 7.39844C7.5957 8.05924 7.99609 8.38965 8.5625 8.38965ZM14.1387 2.00781C15.0436 2.00781 15.6979 2.38053 16.1016 3.12598C16.4141 3.70215 16.5703 4.49154 16.5703 5.49414C16.5703 6.44466 16.4287 7.23079 16.1455 7.85254C15.7354 8.74447 15.0648 9.19043 14.1338 9.19043C13.2939 9.19043 12.6689 8.82585 12.2588 8.09668C11.917 7.48796 11.7461 6.6709 11.7461 5.64551C11.7461 4.85124 11.8486 4.16927 12.0537 3.59961C12.4378 2.53841 13.1328 2.00781 14.1387 2.00781ZM14.1289 8.38965C14.5846 8.38965 14.9476 8.18783 15.2178 7.78418C15.488 7.38053 15.623 6.62858 15.623 5.52832C15.623 4.73405 15.5254 4.08138 15.3301 3.57031C15.1348 3.05599 14.7555 2.79883 14.1924 2.79883C13.6748 2.79883 13.2956 3.04297 13.0547 3.53125C12.8171 4.01628 12.6982 4.73242 12.6982 5.67969C12.6982 6.39258 12.7747 6.96549 12.9277 7.39844C13.1621 8.05924 13.5625 8.38965 14.1289 8.38965Z" fill="#C6C6C6"/>
<path d="M27 131.3C27 131.3 103.4 131.3 154.333 126.825C205.267 122.35 230.733 48.9598 281.667 48.9598C332.6 48.9598 358.067 70.9768 409 93.7098C459.933 116.443 485.4 162.625 536.333 162.625C587.267 162.625 612.733 129.062 663.667 104.897C714.6 80.7323 791 41.7998 791 41.7998" stroke="#AE8AEF" stroke-width="2"/>
<path d="M27 135C25.9393 135 24.922 134.579 24.1719 133.829C23.4218 133.079 23.0003 132.062 23 131.001C22.9997 129.94 23.4208 128.923 24.1705 128.173C24.9203 127.422 25.9373 127.001 26.998 127C28.0587 126.999 29.0762 127.42 29.8267 128.17C30.5772 128.919 30.9992 129.936 31 130.997C31.0008 132.058 30.5803 133.075 29.8309 133.826C29.0815 134.577 28.0647 134.999 27.004 135H27Z" fill="#AE8AEF"/>
<path d="M154 131C152.939 131 151.922 130.579 151.172 129.829C150.422 129.079 150 128.062 150 127.001C150 125.94 150.421 124.923 151.171 124.173C151.92 123.422 152.937 123.001 153.998 123C155.059 122.999 156.076 123.42 156.827 124.17C157.577 124.919 157.999 125.936 158 126.997C158.001 128.058 157.58 129.075 156.831 129.826C156.082 130.577 155.065 130.999 154.004 131H154Z" fill="#AE8AEF"/>
<path d="M281 53C279.939 53 278.922 52.5787 278.172 51.8288C277.422 51.0789 277 50.0617 277 49.001C277 47.9403 277.421 46.9229 278.171 46.1726C278.92 45.4223 279.937 45.0005 280.998 45C282.059 44.9995 283.076 45.4203 283.827 46.1698C284.577 46.9194 284.999 47.9363 285 48.997C285.001 50.0577 284.58 51.0753 283.831 51.826C283.082 52.5766 282.065 52.9989 281.004 53L281 53Z" fill="#AE8AEF"/>
<path d="M409 98C407.939 98 406.922 97.5787 406.172 96.8288C405.422 96.0789 405 95.0617 405 94.001C405 92.9403 405.421 91.9229 406.171 91.1726C406.92 90.4223 407.937 90.0005 408.998 90C410.059 89.9995 411.076 90.4203 411.827 91.1698C412.577 91.9194 412.999 92.9363 413 93.997C413.001 95.0577 412.58 96.0753 411.831 96.826C411.082 97.5766 410.065 97.9989 409.004 98H409Z" fill="#AE8AEF"/>
<path d="M536 167C534.939 167 533.922 166.579 533.172 165.829C532.422 165.079 532 164.062 532 163.001C532 161.94 532.421 160.923 533.171 160.173C533.92 159.422 534.937 159.001 535.998 159C537.059 158.999 538.076 159.42 538.827 160.17C539.577 160.919 539.999 161.936 540 162.997C540.001 164.058 539.58 165.075 538.831 165.826C538.082 166.577 537.065 166.999 536.004 167H536Z" fill="#AE8AEF"/>
<path d="M663 109C661.939 109 660.922 108.579 660.172 107.829C659.422 107.079 659 106.062 659 105.001C659 103.94 659.421 102.923 660.171 102.173C660.92 101.422 661.937 101.001 662.998 101C664.059 100.999 665.076 101.42 665.827 102.17C666.577 102.919 666.999 103.936 667 104.997C667.001 106.058 666.58 107.075 665.831 107.826C665.082 108.577 664.065 108.999 663.004 109H663Z" fill="#AE8AEF"/>
<path d="M791 46C789.939 46 788.922 45.5787 788.172 44.8288C787.422 44.0789 787 43.0617 787 42.001C787 40.9403 787.421 39.9229 788.171 39.1726C788.92 38.4223 789.937 38.0005 790.998 38C792.059 37.9995 793.076 38.4203 793.827 39.1698C794.577 39.9194 794.999 40.9363 795 41.997C795.001 43.0577 794.58 44.0753 793.831 44.826C793.082 45.5766 792.065 45.9989 791.004 46L791 46Z" fill="#AE8AEF"/>
</svg>
