<svg width="345" height="53" viewBox="0 0 345 53" fill="none" xmlns="http://www.w3.org/2000/svg">
<path fill-rule="evenodd" clip-rule="evenodd" d="M318.976 52.0474C333.349 52.0474 345 40.3962 345 26.0237C345 11.6512 333.349 0 318.976 0C304.604 0 292.953 11.6512 292.953 26.0237C292.953 40.3962 304.604 52.0474 318.976 52.0474ZM318.976 45.5415C329.756 45.5415 338.494 36.8031 338.494 26.0237C338.494 15.2443 329.756 6.50592 318.976 6.50592C308.197 6.50592 299.459 15.2443 299.459 26.0237C299.459 36.8031 308.197 45.5415 318.976 45.5415Z" fill="url(#paint0_linear_2_13)"/>
<circle cx="318.976" cy="26.0237" r="13.0119" fill="url(#paint1_linear_2_13)"/>
<path d="M30.2138 9.09016V14.7683H18.5763V45.1903H11.6375V14.7683H0V9.09016H30.2138ZM49.4441 23.624C48.8977 23.4504 48.1328 23.2767 47.1494 23.1031C46.2022 22.8947 45.0914 22.7905 43.8166 22.7905C43.088 22.7905 42.3049 22.8599 41.4672 22.9989C40.6658 23.1378 40.1013 23.2593 39.7735 23.3635V45.1903H33.1625V19.2482C34.4373 18.7967 36.0218 18.38 37.9159 17.998C39.8463 17.5813 41.9771 17.3729 44.3083 17.3729C44.7454 17.3729 45.2553 17.4077 45.8381 17.4771C46.4208 17.5118 47.0036 17.5813 47.5865 17.6854C48.1691 17.7548 48.7338 17.859 49.2802 17.998C49.8265 18.1022 50.2636 18.2064 50.5914 18.3105L49.4441 23.624ZM65.2514 40.7624C67.2911 40.7624 68.8391 40.6583 69.8955 40.4499V33.4695C69.5312 33.3653 69.003 33.2611 68.311 33.1569C67.6189 33.0527 66.854 33.0006 66.0163 33.0006C65.2877 33.0006 64.5411 33.0527 63.7762 33.1569C63.0477 33.2611 62.3739 33.4522 61.7547 33.7299C61.1719 34.0077 60.6983 34.4071 60.3342 34.9281C59.9699 35.4142 59.7878 36.0393 59.7878 36.8034C59.7878 38.2968 60.2795 39.3386 61.263 39.929C62.2464 40.4847 63.5759 40.7624 65.2514 40.7624ZM64.705 17.2687C66.8905 17.2687 68.7298 17.5292 70.2233 18.0501C71.7166 18.571 72.9005 19.3003 73.7747 20.238C74.6852 21.1756 75.3226 22.3217 75.6869 23.6761C76.0875 24.9957 76.2879 26.4543 76.2879 28.0519V44.5652C75.268 44.7736 73.72 45.0167 71.6438 45.2945C69.604 45.607 67.2911 45.7633 64.705 45.7633C62.993 45.7633 61.4269 45.607 60.0063 45.2945C58.5858 44.9819 57.3655 44.4783 56.3457 43.7838C55.3623 43.0893 54.5791 42.1863 53.9964 41.075C53.45 39.9637 53.1768 38.5919 53.1768 36.9597C53.1768 35.3969 53.4863 34.0773 54.1056 33.0006C54.7613 31.924 55.6354 31.0559 56.7282 30.396C57.8209 29.7015 59.0775 29.2152 60.4981 28.9374C61.9549 28.6249 63.4666 28.4686 65.0329 28.4686C65.7613 28.4686 66.5262 28.5207 67.3276 28.6249C68.1288 28.6943 68.9848 28.8332 69.8955 29.0416V27.9998C69.8955 27.2705 69.8044 26.5759 69.6223 25.9161C69.4401 25.2562 69.1123 24.6832 68.6389 24.197C68.2018 23.6761 67.6008 23.2767 66.8359 22.9989C66.1073 22.7211 65.1785 22.5821 64.0494 22.5821C62.5196 22.5821 61.1172 22.6863 59.8424 22.8947C58.5675 23.1031 57.5294 23.3462 56.7282 23.624L55.9086 18.5189C56.7463 18.2411 57.9665 17.9632 59.5693 17.6854C61.1719 17.4077 62.8838 17.2687 64.705 17.2687ZM89.5743 31.49C89.5743 34.2682 90.2663 36.4561 91.6505 38.0536C93.0346 39.6164 94.9468 40.3978 97.3873 40.3978C98.4436 40.3978 99.3359 40.363 100.064 40.2936C100.829 40.1894 101.449 40.0852 101.922 39.9811V24.3533C101.339 23.9713 100.556 23.624 99.5728 23.3114C98.6256 22.9641 97.6059 22.7905 96.5131 22.7905C94.1091 22.7905 92.3425 23.5719 91.2134 25.1347C90.1207 26.6974 89.5743 28.8159 89.5743 31.49ZM108.533 44.3568C107.222 44.7388 105.564 45.0861 103.561 45.3987C101.594 45.7112 99.5181 45.8675 97.3327 45.8675C95.0743 45.8675 93.0527 45.5376 91.2681 44.8778C89.4832 44.2179 87.9534 43.2802 86.6786 42.0648C85.4402 40.8145 84.4749 39.3212 83.7828 37.5848C83.1273 35.8136 82.7995 33.8341 82.7995 31.6462C82.7995 29.4931 83.0726 27.5483 83.619 25.8119C84.2017 24.0407 85.0395 22.53 86.1323 21.2798C87.225 20.0296 88.5544 19.0746 90.1207 18.4147C91.6868 17.7202 93.4898 17.3729 95.5297 17.3729C96.9137 17.3729 98.1339 17.5292 99.1903 17.8417C100.247 18.1543 101.157 18.5016 101.922 18.8836V5.80833L108.533 4.76648V44.3568ZM115.346 31.6983C115.346 29.3021 115.711 27.2011 116.439 25.3951C117.204 23.5892 118.206 22.096 119.444 20.9152C120.682 19.6997 122.103 18.7967 123.706 18.2064C125.308 17.5813 126.947 17.2687 128.623 17.2687C132.557 17.2687 135.616 18.4321 137.802 20.7589C140.024 23.0857 141.135 26.5585 141.135 31.1774C141.135 31.5247 141.117 31.924 141.08 32.3755C141.08 32.7923 141.062 33.1742 141.025 33.5216H122.176C122.358 35.7095 123.159 37.4112 124.58 38.6266C126.037 39.8075 128.131 40.3978 130.863 40.3978C132.466 40.3978 133.923 40.2588 135.234 39.9811C136.582 39.7033 137.638 39.408 138.403 39.0955L139.277 44.2526C138.912 44.4262 138.403 44.6173 137.747 44.8257C137.129 44.9993 136.399 45.1555 135.562 45.2945C134.76 45.4681 133.886 45.607 132.939 45.7112C131.992 45.8154 131.027 45.8675 130.043 45.8675C127.53 45.8675 125.345 45.5202 123.487 44.8257C121.63 44.0964 120.1 43.1066 118.898 41.8564C117.696 40.5714 116.803 39.0782 116.221 37.3764C115.638 35.64 115.346 33.7473 115.346 31.6983ZM134.524 28.8853C134.524 28.0171 134.396 27.2011 134.141 26.437C133.886 25.6383 133.504 24.9611 132.994 24.4054C132.52 23.815 131.919 23.3635 131.191 23.051C130.499 22.7036 129.661 22.53 128.678 22.53C127.658 22.53 126.765 22.7211 126 23.1031C125.235 23.4504 124.58 23.9192 124.033 24.5096C123.523 25.0999 123.123 25.7771 122.832 26.5412C122.54 27.3052 122.34 28.0866 122.23 28.8853H134.524ZM165.299 45.9717C162.458 45.9717 159.909 45.555 157.65 44.7215C155.392 43.888 153.48 42.6725 151.913 41.075C150.348 39.4428 149.146 37.4633 148.307 35.1364C147.47 32.8096 147.05 30.1356 147.05 27.1142C147.05 24.0928 147.524 21.4188 148.471 19.0919C149.454 16.7651 150.785 14.803 152.459 13.2055C154.135 11.5733 156.102 10.3404 158.36 9.5069C160.619 8.67342 163.041 8.25668 165.627 8.25668C167.193 8.25668 168.614 8.37823 169.888 8.62133C171.164 8.8297 172.275 9.07284 173.221 9.35063C174.169 9.62841 174.952 9.92364 175.571 10.2362C176.191 10.5488 176.628 10.7744 176.882 10.9134L174.86 16.2789C173.986 15.758 172.729 15.2719 171.09 14.8203C169.488 14.3342 167.74 14.091 165.845 14.091C164.206 14.091 162.676 14.3688 161.256 14.9245C159.835 15.4455 158.598 16.2442 157.541 17.3208C156.522 18.3974 155.72 19.7518 155.137 21.384C154.555 23.0162 154.262 24.909 154.262 27.0621C154.262 28.9722 154.481 30.7259 154.918 32.3234C155.392 33.921 156.102 35.31 157.049 36.4909C157.997 37.6369 159.199 38.5398 160.655 39.1997C162.112 39.8248 163.861 40.1373 165.9 40.1373C168.341 40.1373 170.326 39.9116 171.855 39.4601C173.385 38.974 174.569 38.5225 175.407 38.1057L177.264 43.4713C176.827 43.749 176.226 44.027 175.461 44.3047C174.733 44.5825 173.859 44.8604 172.839 45.1382C171.82 45.3814 170.672 45.5723 169.397 45.7112C168.122 45.8848 166.756 45.9717 165.299 45.9717ZM208.134 31.5421C208.134 33.6952 207.806 35.6574 207.15 37.4285C206.495 39.1997 205.566 40.7104 204.364 41.9606C203.162 43.2108 201.706 44.1832 199.993 44.8778C198.318 45.5723 196.461 45.9196 194.42 45.9196C192.381 45.9196 190.523 45.5723 188.847 44.8778C187.173 44.1832 185.733 43.2108 184.531 41.9606C183.329 40.7104 182.382 39.1997 181.69 37.4285C181.034 35.6574 180.706 33.6952 180.706 31.5421C180.706 29.3889 181.034 27.4441 181.69 25.7077C182.382 23.9365 183.329 22.4259 184.531 21.1756C185.77 19.9254 187.227 18.9704 188.902 18.3105C190.578 17.616 192.418 17.2687 194.42 17.2687C196.424 17.2687 198.264 17.616 199.938 18.3105C201.651 18.9704 203.107 19.9254 204.309 21.1756C205.511 22.4259 206.44 23.9365 207.096 25.7077C207.788 27.4441 208.134 29.3889 208.134 31.5421ZM201.359 31.5421C201.359 28.8332 200.74 26.6974 199.501 25.1347C198.299 23.5371 196.605 22.7384 194.42 22.7384C192.235 22.7384 190.523 23.5371 189.284 25.1347C188.082 26.6974 187.481 28.8332 187.481 31.5421C187.481 34.2856 188.082 36.4561 189.284 38.0536C190.523 39.6512 192.235 40.4499 194.42 40.4499C196.605 40.4499 198.299 39.6512 199.501 38.0536C200.74 36.4561 201.359 34.2856 201.359 31.5421ZM238.384 44.3568C237.109 44.6694 235.452 44.9819 233.413 45.2945C231.372 45.6418 229.132 45.8154 226.692 45.8154C224.398 45.8154 222.466 45.5029 220.901 44.8778C219.371 44.2526 218.132 43.3844 217.186 42.2731C216.275 41.1619 215.619 39.8421 215.219 38.3141C214.817 36.7513 214.618 35.0496 214.618 33.209V17.9459H221.229V32.2193C221.229 35.1364 221.666 37.2201 222.54 38.4704C223.45 39.7206 225.016 40.3457 227.239 40.3457C228.039 40.3457 228.878 40.3109 229.752 40.2415C230.662 40.1721 231.336 40.0852 231.773 39.9811V17.9459H238.384V44.3568ZM263.08 23.624C262.534 23.4504 261.769 23.2767 260.785 23.1031C259.839 22.8947 258.727 22.7905 257.452 22.7905C256.724 22.7905 255.94 22.8599 255.103 22.9989C254.301 23.1378 253.737 23.2593 253.409 23.3635V45.1903H246.798V19.2482C248.073 18.7967 249.657 18.38 251.552 17.998C253.482 17.5813 255.613 17.3729 257.944 17.3729C258.381 17.3729 258.891 17.4077 259.474 17.4771C260.057 17.5118 260.639 17.5813 261.222 17.6854C261.806 17.7548 262.37 17.859 262.916 17.998C263.462 18.1022 263.899 18.2064 264.227 18.3105L263.08 23.624ZM268.507 10.7571L275.118 9.71527V17.9459H285.28V23.2072H275.118V34.303C275.118 36.4908 275.481 38.0536 276.21 38.9913C276.938 39.929 278.177 40.3978 279.926 40.3978C281.128 40.3978 282.183 40.2763 283.095 40.0331C284.041 39.79 284.788 39.5643 285.335 39.3559L286.427 44.3568C285.662 44.6694 284.66 44.9819 283.422 45.2945C282.183 45.6418 280.726 45.8154 279.051 45.8154C277.011 45.8154 275.299 45.555 273.916 45.034C272.568 44.5131 271.493 43.7665 270.692 42.7941C269.89 41.787 269.326 40.5888 268.998 39.1997C268.671 37.7758 268.507 36.161 268.507 34.3551V10.7571Z" fill="black"/>
<defs>
<linearGradient id="paint0_linear_2_13" x1="345" y1="26.0237" x2="292.953" y2="26.0237" gradientUnits="userSpaceOnUse">
<stop stop-color="#B68DFF"/>
<stop offset="1" stop-color="#FF5CCC"/>
</linearGradient>
<linearGradient id="paint1_linear_2_13" x1="305.964" y1="26.0237" x2="331.988" y2="26.0237" gradientUnits="userSpaceOnUse">
<stop offset="0.015625" stop-color="#FF5267"/>
<stop offset="1" stop-color="#BE03FF"/>
</linearGradient>
</defs>
</svg>
