<svg width="34" height="34" viewBox="0 0 34 34" fill="none" xmlns="http://www.w3.org/2000/svg">
<path fill-rule="evenodd" clip-rule="evenodd" d="M17.1789 33.6422C26.469 33.6422 34 26.1112 34 16.8211C34 7.53107 26.469 0 17.1789 0C7.88886 0 0.357788 7.53107 0.357788 16.8211C0.357788 26.1112 7.88886 33.6422 17.1789 33.6422ZM17.1789 29.4369C24.1465 29.4369 29.7948 23.7886 29.7948 16.8211C29.7948 9.85354 24.1465 4.20524 17.1789 4.20524C10.2114 4.20524 4.56311 9.85354 4.56311 16.8211C4.56311 23.7886 10.2114 29.4369 17.1789 29.4369Z" fill="url(#paint0_linear_1597_179)"/>
<circle cx="17.1789" cy="16.8212" r="8.41056" fill="url(#paint1_linear_1597_179)"/>
<defs>
<linearGradient id="paint0_linear_1597_179" x1="34" y1="16.8211" x2="0.357788" y2="16.8211" gradientUnits="userSpaceOnUse">
<stop stop-color="#B68DFF"/>
<stop offset="1" stop-color="#FF5CCC"/>
</linearGradient>
<linearGradient id="paint1_linear_1597_179" x1="8.76831" y1="16.8212" x2="25.5894" y2="16.8212" gradientUnits="userSpaceOnUse">
<stop offset="0.015625" stop-color="#FF5267"/>
<stop offset="1" stop-color="#BE03FF"/>
</linearGradient>
</defs>
</svg>
