<svg width="20" height="20" viewBox="0 0 20 20" fill="none" xmlns="http://www.w3.org/2000/svg">
<path d="M1.25 6.25003H13.7461L13.7492 9.06253C13.7492 9.43546 13.97 9.77308 14.3121 9.92191C14.654 10.0708 15.0515 10.0031 15.325 9.7498L19.7 5.6873C20.1 5.3162 20.1 4.68378 19.7 4.31269L15.325 0.250187C15.0518 -0.00309458 14.6543 -0.0707899 14.3121 0.0779992C13.97 0.227062 13.7492 0.564718 13.7492 0.937374L13.7461 3.75003H1.25C0.558984 3.75003 0 4.30862 0 4.96487C0 5.62112 0.558984 6.25003 1.25 6.25003ZM18.75 13.75H6.25391L6.25 10.9024C6.25 10.5294 6.02922 10.1918 5.68711 10.043C5.34766 9.92972 4.94922 9.99612 4.67578 10.25L0.300781 14.3125C-0.0992187 14.6836 -0.0992187 15.316 0.300781 15.6871L4.67578 19.7496C4.94891 20.0029 5.34648 20.0707 5.68867 19.9217C6.03125 19.7735 6.25 19.4336 6.25 19.0625L6.25391 16.25H18.75C19.441 16.25 20 15.691 20 15C20 14.309 19.4414 13.75 18.75 13.75Z" fill="white"/>
</svg>
