<svg width="15" height="15" viewBox="0 0 15 15" fill="none" xmlns="http://www.w3.org/2000/svg">
<path d="M9.10002 14.4117H4.10002C2.06002 14.4117 0.400024 12.7517 0.400024 10.7117V5.71172C0.400024 3.67172 2.06002 2.01172 4.10002 2.01172H6.10002C6.49002 2.01172 6.80002 2.32172 6.80002 2.71172C6.80002 3.10172 6.49002 3.41172 6.10002 3.41172H4.10002C2.83002 3.41172 1.80002 4.44172 1.80002 5.71172V10.7117C1.80002 11.9817 2.83002 13.0117 4.10002 13.0117H9.10002C10.37 13.0117 11.4 11.9817 11.4 10.7117V8.71172C11.4 8.32172 11.71 8.01172 12.1 8.01172C12.49 8.01172 12.8 8.32172 12.8 8.71172V10.7117C12.8 12.7517 11.14 14.4117 9.10002 14.4117Z" fill="black"/>
<path d="M14.7506 0.439998C14.7206 0.359998 14.6606 0.279998 14.6006 0.21C14.6006 0.21 14.5606 0.19 14.5506 0.17C14.5006 0.12 14.4406 0.08 14.3706 0.05C14.2806 0.00999995 14.1906 0 14.1006 0H9.10065C8.71065 0 8.40065 0.309998 8.40065 0.699998C8.40065 1.09 8.71065 1.4 9.10065 1.4H12.4106L6.18065 7.63C5.91065 7.9 5.91065 8.35 6.18065 8.62C6.32065 8.76 6.50065 8.83 6.68065 8.83C6.86065 8.83 7.04065 8.76 7.18065 8.62L13.3906 2.41V5.69C13.3806 6.08 13.6906 6.39 14.0706 6.39C14.4606 6.39 14.7706 6.08 14.7706 5.69L14.7906 0.709998C14.7906 0.619998 14.7706 0.529998 14.7406 0.439998H14.7506Z" fill="black"/>
</svg>
