<svg width="19" height="15" viewBox="0 0 19 15" fill="none" xmlns="http://www.w3.org/2000/svg">
<path d="M13.5523 3.56987C13.25 3.87211 13.25 4.37584 13.5523 4.67808L15.5784 6.693H7.38441C6.94784 6.693 6.60083 7.04001 6.60083 7.47658C6.60083 7.91315 6.94784 8.26016 7.38441 8.26016H15.5672L13.5411 10.2751C13.2388 10.5773 13.2388 11.0811 13.5411 11.3833C13.8433 11.6855 14.3471 11.6855 14.6493 11.3833L18.0075 8.02509C18.0747 7.95792 18.1418 7.86837 18.1754 7.76762C18.2202 7.66688 18.2314 7.56613 18.2314 7.46538C18.2314 7.36464 18.209 7.26389 18.1754 7.16315C18.1306 7.0624 18.0747 6.98404 18.0075 6.90568L14.6493 3.54748C14.3471 3.24524 13.8433 3.24524 13.5411 3.54748L13.5523 3.56987Z" fill="black"/>
<path d="M8.29063 15H3.81303C2.14512 15 0.790649 13.6455 0.790649 11.9776V3.02238C0.790649 1.35448 2.14512 0 3.81303 0H8.29063C9.95854 0 11.313 1.35448 11.313 3.02238V4.14179C11.313 4.57835 10.966 4.92537 10.5294 4.92537C10.0929 4.92537 9.74585 4.57835 9.74585 4.14179V3.02238C9.74585 2.21641 9.0966 1.56716 8.29063 1.56716H3.81303C3.00706 1.56716 2.35781 2.21641 2.35781 3.02238V11.9776C2.35781 12.7836 3.00706 13.4328 3.81303 13.4328H8.29063C9.0966 13.4328 9.74585 12.7836 9.74585 11.9776V10.8582C9.74585 10.4216 10.0929 10.0746 10.5294 10.0746C10.966 10.0746 11.313 10.4216 11.313 10.8582V11.9776C11.313 13.6455 9.95854 15 8.29063 15Z" fill="black"/>
</svg>
