<svg width="14" height="14" viewBox="0 0 14 14" fill="none" xmlns="http://www.w3.org/2000/svg">
<path d="M12.0417 7.56723C12.6034 7.62129 13.1085 7.6034 13.4748 7.57193C13.3723 8.73263 12.9591 9.84829 12.2739 10.7994C11.4768 11.9059 10.3519 12.7337 9.05832 13.1655C7.76478 13.5973 6.36817 13.6114 5.0662 13.2057C3.76423 12.8 2.62284 11.995 1.8036 10.9048C0.984357 9.81457 0.528768 8.49429 0.501317 7.13084C0.473866 5.76739 0.875946 4.42984 1.65064 3.30753C2.42533 2.18521 3.5334 1.33498 4.81799 0.877188C5.91963 0.484591 7.10324 0.397667 8.24418 0.620181C8.10934 0.95832 7.94927 1.42837 7.84137 1.97119C7.62328 3.06837 7.60422 4.54456 8.54788 5.80037C9.49055 7.05485 10.9207 7.45933 12.0417 7.56723Z" stroke="#0A060A"/>
</svg>
