<svg width="24" height="24" viewBox="0 0 24 24" fill="none" xmlns="http://www.w3.org/2000/svg" class="origin-center"><path d="M18 11.2C17.7878 11.2 17.5843 11.2843 17.4343 11.4343C17.2843 11.5843 17.2 11.7878 17.2 12C17.2079 13.1375 16.844 14.2464 16.1637 15.1581C15.4834 16.0698 14.5239 16.7342 13.4312 17.0505C12.3385 17.3667 11.1725 17.3173 10.1104 16.9099C9.04837 16.5024 8.14849 15.7592 7.54767 14.7933C6.94685 13.8274 6.67799 12.6917 6.78199 11.5589C6.88599 10.4262 7.35716 9.35842 8.12381 8.51807C8.89047 7.67772 9.91064 7.1108 11.0291 6.90356C12.1476 6.69632 13.3032 6.86011 14.32 7.37L13.39 7.58001C13.198 7.62375 13.029 7.73674 12.9151 7.89736C12.8012 8.05798 12.7506 8.25495 12.7729 8.45056C12.7952 8.64618 12.8888 8.82671 13.0359 8.9576C13.1829 9.08849 13.3731 9.16056 13.57 9.16001C13.6296 9.16989 13.6904 9.16989 13.75 9.16001L16.42 8.56001C16.4942 8.56001 16.5552 8.53833 16.62 8.50001C16.8131 8.36633 16.9023 8.2074 17 8.00001C17.0243 7.8808 17.0182 7.71877 17 7.6L16.27 4.72001C16.2107 4.52293 16.0777 4.35631 15.8986 4.25477C15.7196 4.15323 15.5083 4.1246 15.3088 4.17482C15.1092 4.22504 14.9366 4.35025 14.827 4.52442C14.7173 4.69859 14.679 4.90832 14.72 5.11001L14.92 5.92C13.5886 5.2885 12.0878 5.1073 10.6443 5.40373C9.20084 5.70016 7.89298 6.45815 6.91817 7.56326C5.94336 8.66838 5.35452 10.0606 5.24056 11.5298C5.12659 12.999 5.49368 14.4654 6.28641 15.7076C7.07914 16.9498 8.25448 17.9004 9.63499 18.4159C11.0155 18.9314 12.5262 18.9838 13.9391 18.5652C15.352 18.1466 16.5904 17.2797 17.4673 16.0953C18.3441 14.911 18.8119 13.4736 18.8 12C18.8 11.7878 18.7157 11.5843 18.5657 11.4343C18.4157 11.2843 18.2122 11.2 18 11.2Z" fill="currentColor" fill-opacity="0.8"/><circle cx="12" cy="12" r="11.5" fill="none" stroke-width="1.6" stroke-linecap="round" stroke-linejoin="round" stroke-miterlimit="10" stroke-dasharray="100"/></svg>